<svg width="207" height="102" viewBox="0 0 207 102" fill="none" xmlns="http://www.w3.org/2000/svg">
<path d="M131.47 31.4622C131.092 31.6871 130.731 31.7971 130.386 31.7923C130.045 31.7784 129.727 31.6685 129.434 31.4627C129.138 31.2511 128.863 30.9647 128.609 30.6036L129.083 30.0893C129.282 30.3587 129.489 30.5888 129.703 30.7794C129.914 30.9644 130.14 31.0779 130.382 31.12C130.621 31.1564 130.881 31.0911 131.162 30.9242C131.471 30.7402 131.664 30.5169 131.741 30.2542C131.817 29.9915 131.751 29.6854 131.544 29.3359C131.36 29.0265 131.124 28.806 130.836 28.6745C130.554 28.5396 130.208 28.4273 129.798 28.3377L127.869 27.8909C127.525 27.8084 127.235 27.686 126.999 27.5239C126.76 27.356 126.56 27.1374 126.4 26.8681C126.114 26.3867 126.037 25.932 126.17 25.5037C126.304 25.0755 126.608 24.72 127.084 24.4372C127.33 24.2907 127.569 24.1911 127.802 24.1382C128.04 24.082 128.27 24.0847 128.493 24.1461C128.718 24.1985 128.937 24.3126 129.15 24.4883C129.363 24.6641 129.579 24.9039 129.799 25.2078L129.327 25.6861C129.13 25.4075 128.933 25.1872 128.736 25.0252C128.541 24.8541 128.334 24.7601 128.115 24.7432C127.901 24.7229 127.659 24.7928 127.39 24.9529C127.104 25.1233 126.913 25.3375 126.818 25.5955C126.723 25.8535 126.77 26.1401 126.957 26.4553C127.07 26.6444 127.206 26.7958 127.367 26.9097C127.533 27.0201 127.761 27.1096 128.05 27.1782L129.969 27.6078C130.398 27.7021 130.806 27.8472 131.194 28.0431C131.582 28.239 131.893 28.5347 132.128 28.9301C132.336 29.2796 132.441 29.6127 132.443 29.9294C132.451 30.2427 132.371 30.5311 132.201 30.7946C132.029 31.0523 131.785 31.2748 131.47 31.4622Z" fill="black"/>
<path d="M139.077 27.9758L137.304 20.0722L138.055 19.9037L138.992 24.0799L140.163 19.4309L140.875 19.2712L140.017 23.0301L142.999 27.096L142.268 27.2601L139.644 23.6979L139.231 25.1435L139.828 27.8073L139.077 27.9758Z" fill="black"/>
<path d="M148.673 26.7028L151.145 18.8019L151.941 18.8779L152.884 27.1047L152.137 27.0334L151.945 24.8352L150.024 24.6519L149.41 26.7731L148.673 26.7028ZM150.186 24.1148L151.898 24.2782L151.457 19.8463L150.186 24.1148Z" fill="black"/>
<path d="M159.939 29.0891L162.939 22.2043L161.536 21.5931L161.772 21.0522L165.237 22.5622L165.001 23.1031L163.635 22.5079L160.635 29.3927L159.939 29.0891Z" fill="black"/>
<path d="M167.825 33.6396L173.111 27.5019L175.331 29.4138L174.946 29.8609L173.309 28.4514L171.326 30.755L172.659 31.9034L172.294 32.3278L170.96 31.1793L168.781 33.7102L170.433 35.1327L170.061 35.5646L167.825 33.6396Z" fill="black"/>
<path d="M177.918 47.3443L185.599 44.7731L186.529 47.5516L185.97 47.7389L185.284 45.6906L182.401 46.6556L182.96 48.3245L182.429 48.5023L181.87 46.8333L178.703 47.8935L179.395 49.9608L178.854 50.1417L177.918 47.3443Z" fill="black"/>
<path d="M179.988 57.1989L187.496 57.026L187.461 55.4964L188.051 55.4829L188.138 59.2619L187.548 59.2754L187.514 57.7858L180.006 57.9587L179.988 57.1989Z" fill="black"/>
<path d="M176.581 73.4666L182.619 79.1305L182.204 79.8144L174.387 77.0829L174.776 76.4417L176.839 77.2255L177.84 75.5755L176.197 74.0993L176.581 73.4666ZM178.253 75.9549L177.361 77.4253L181.543 78.9571L178.253 75.9549Z" fill="black"/>
<path d="M170.323 81.9346L175.503 88.162L174.096 89.3322C173.707 89.6562 173.348 89.8458 173.021 89.901C172.694 89.9655 172.381 89.9179 172.083 89.758C171.79 89.6032 171.506 89.3618 171.234 89.0338C171.042 88.8032 170.886 88.564 170.767 88.3164C170.648 88.0687 170.59 87.822 170.593 87.5761C170.597 87.3303 170.693 87.0905 170.88 86.8568L167.279 84.4669L167.848 83.9937L171.308 86.2926L172.284 85.4805L169.739 82.4206L170.323 81.9346ZM172.642 85.911L171.85 86.5697C171.589 86.7871 171.423 86.999 171.352 87.2055C171.281 87.412 171.285 87.6254 171.364 87.8457C171.443 88.066 171.589 88.3043 171.803 88.5606C172.122 88.945 172.428 89.1766 172.719 89.2554C173.01 89.3342 173.352 89.2095 173.747 88.8812L174.554 88.2097L172.642 85.911Z" fill="black"/>
<path d="M160.163 88.4965L162.825 95.5192L164.255 94.977L164.464 95.5287L160.93 96.8682L160.721 96.3165L162.114 95.7885L159.453 88.7658L160.163 88.4965Z" fill="black"/>
<path d="M130.498 81.651C130.498 76.9372 130.498 62.0011 130.498 57.0698C134.772 57.0698 141.674 57.1904 144.864 57.0698C147.198 56.9817 149.07 55.8629 149.438 53.1669C149.761 50.7909 148.204 48.1378 145.534 47.5211C144.722 47.3335 143.855 47.3701 143.013 47.3653C139.728 47.3469 133.836 47.3653 130.498 47.3653C130.498 43.8329 130.498 42.0383 130.498 40.0891C133.159 40.0893 131.305 40.089 135.348 40.0891C139.56 40.144 143.784 39.7052 147.98 40.5742C153.448 41.7065 156.356 44.5347 157.466 50.0285C158.468 54.9859 156.236 58.5524 152.604 61.5794C151.76 62.2824 151.057 62.7744 150.073 63.3367C150.301 63.7585 151.327 65.7464 151.651 66.4353C153.16 69.6442 157.243 77.8167 159 81.651C156.399 81.651 152.967 81.6561 150.662 81.651C147.472 75.2862 144.168 68.1164 142.692 65.3048C141.708 65.3048 140.021 65.3048 138.624 65.3048C138.624 68.6602 138.624 77.6401 138.624 81.651C137.139 81.651 132.149 81.651 130.498 81.651Z" fill="black"/>
<path d="M124.135 65.7909C125.965 71.0306 128.044 76.1455 129.758 81.6357C125.865 81.6357 124.838 81.6357 121.604 81.6357C119.432 75.3728 116.524 66.7694 114.051 59.5807C112.277 64.74 110.773 69.0943 109.285 73.4544C109.001 74.2854 106.986 80.8046 106.703 81.6357C102.344 81.6357 105.582 81.6178 98.1973 81.6357C103.241 67.9118 108.31 53.8789 113.313 40.2653C113.654 40.2462 113.996 40.2271 114.337 40.208C118.164 48.4019 120.709 57.1696 124.135 65.7909Z" fill="black"/>
<path d="M55.9627 71.8408C57.099 67.9777 56.2874 66.2626 52.8886 65.2032C51.3671 64.7289 49.7752 64.5083 48.2291 64.1129C43.4257 62.8841 40.5778 59.6397 39.7848 54.5965C38.9652 49.3847 41.3516 44.5044 45.7252 41.8827C53.1821 37.4129 62.594 41.273 64.0064 49.5471C64.3613 51.626 64.2773 51.3178 64.2773 52.65C62.0216 52.65 59.7769 52.65 56.6752 52.65C56.3932 49.4036 52.8164 47.8028 50.7853 48.5424C48.9257 49.2195 47.7705 50.4717 47.7388 52.65C47.7036 55.0684 49.1571 56.2021 51.1106 56.7386C52.7352 57.1847 54.4564 57.254 56.0719 57.7263C61.712 59.3753 64.97 64.244 64.6203 70.3241C64.2855 76.1454 60.4037 80.5343 54.7524 81.5608C53.9407 81.7082 52.2772 81.8053 51.8288 81.5608C51.8288 80.5359 51.8288 80.5359 51.8288 79.2582C51.8288 77.2895 51.8288 75.2235 51.8288 74.043C53.5735 73.7479 54.7524 73.4527 55.9627 71.8408Z" fill="black"/>
<path d="M87.6923 40.5687C92.2038 40.5687 91.8759 40.5069 97.2793 40.5687C92.7218 46.5336 84.5599 56.5308 81.489 61.352C86.124 68.629 92.2658 74.6421 97.2793 81.6095C94.5134 81.6095 90.269 81.6862 87.4104 81.6095C86.659 80.6557 86.4553 80.4631 85.9694 79.8619C85.9083 79.7862 85.8427 79.704 85.7709 79.6131C82.6169 75.6143 79.4916 71.5906 76.1696 67.3367C73.736 70.1553 68.9562 75.4272 65.1523 79.6131C65.1523 75.6611 65.1834 70.7962 65.1523 66.5232C65.0155 57.8632 65.0957 49.2247 65.0951 40.5687C67.3906 40.5687 71.3073 40.5687 73.1532 40.5687C73.1532 46.338 73.1532 52.2029 73.1532 58.1056C77.8102 52.2523 83.1834 46.5283 87.6923 40.5687Z" fill="black"/>
<path d="M3.1878 72.9859C-1.27168 63.7833 -1.32498 54.9861 4.7687 46.7992C9.36029 40.6304 18.3215 38.4619 26.1153 41.2457C32.8617 43.6554 37.8462 50.8854 38.2213 58.5157C38.6041 66.3011 36.9214 73.1089 30.6999 78.1196C23.8478 83.6383 9.50434 83.7587 3.1878 72.9859ZM14.1334 72.6623C21.7798 76.0171 28.4035 72.3336 30.295 63.6748C31.4754 58.2713 28.6647 51.58 24.2429 49.2668C19.9103 47.0003 14.2281 48.0049 11.3107 51.6381C6.46093 57.6779 7.25349 68.8068 14.1334 72.6623Z" fill="black"/>
<path d="M17.0293 63.5609C15.4788 61.9646 15.4515 60.3727 16.5439 58.7341C17.4518 57.3723 18.8291 57.273 20.1917 57.6135C21.7066 57.9922 22.3548 59.2377 22.4278 60.7617C22.5615 63.5531 20.0664 64.9281 17.0293 63.5609Z" fill="#262626"/>
</svg>
