<svg width="1151" height="328" viewBox="0 0 1151 328" fill="none" xmlns="http://www.w3.org/2000/svg">
<path d="M928.256 296.274C928.256 262.743 928.256 156.5 928.256 121.423C958.661 121.423 1007.75 122.28 1030.45 121.423C1047.05 120.796 1060.37 112.838 1062.98 93.6607C1065.28 76.7595 1054.2 57.8878 1035.21 53.5007C1029.43 52.1667 1023.27 52.4265 1017.28 52.3929C993.915 52.2619 952 52.3929 928.256 52.3929C928.256 27.266 928.256 14.5007 928.256 0.635433C947.185 0.637114 934 0.634725 962.761 0.635433C992.718 1.02585 1022.76 -2.09496 1052.61 4.08631C1091.51 12.1404 1112.19 32.258 1120.09 71.3366C1127.22 106.599 1111.34 131.969 1085.5 153.501C1079.5 158.501 1074.5 162.001 1067.5 166.001C1069.12 169.001 1076.42 183.141 1078.72 188.042C1089.46 210.867 1118.5 269 1131 296.274C1112.5 296.274 1088.08 296.31 1071.69 296.274C1049 251 1025.5 200 1015 180C1008 180 996 180 986.062 180C986.062 203.868 986.062 267.743 986.062 296.274C975.5 296.274 940 296.274 928.256 296.274Z" fill="black"/>
<path d="M966.939 326.225C965.772 326.225 964.797 325.975 964.014 325.475C963.247 324.975 962.664 324.283 962.264 323.4C961.864 322.517 961.631 321.492 961.564 320.325L964.064 319.65C964.114 320.367 964.222 321.058 964.389 321.725C964.572 322.392 964.864 322.942 965.264 323.375C965.664 323.792 966.222 324 966.939 324C967.672 324 968.222 323.8 968.589 323.4C968.972 322.983 969.164 322.392 969.164 321.625C969.164 320.708 968.956 319.975 968.539 319.425C968.122 318.858 967.597 318.292 966.964 317.725L963.564 314.725C962.897 314.142 962.406 313.508 962.089 312.825C961.772 312.125 961.614 311.267 961.614 310.25C961.614 308.767 962.039 307.617 962.889 306.8C963.739 305.983 964.897 305.575 966.364 305.575C967.164 305.575 967.864 305.683 968.464 305.9C969.081 306.1 969.589 306.417 969.989 306.85C970.406 307.283 970.731 307.833 970.964 308.5C971.214 309.15 971.381 309.917 971.464 310.8L969.064 311.45C969.014 310.783 968.914 310.175 968.764 309.625C968.614 309.058 968.347 308.608 967.964 308.275C967.597 307.925 967.064 307.75 966.364 307.75C965.664 307.75 965.114 307.942 964.714 308.325C964.331 308.692 964.139 309.242 964.139 309.975C964.139 310.592 964.239 311.1 964.439 311.5C964.656 311.9 964.997 312.308 965.464 312.725L968.889 315.725C969.656 316.392 970.331 317.192 970.914 318.125C971.497 319.042 971.789 320.133 971.789 321.4C971.789 322.4 971.581 323.267 971.164 324C970.747 324.717 970.172 325.267 969.439 325.65C968.722 326.033 967.889 326.225 966.939 326.225ZM979.48 326V305.75H982.305V315.3L986.955 305.75H989.58L985.58 314.675L990.23 326H987.48L983.605 316.5L982.305 318.85V326H979.48ZM996.258 326L1000.56 305.75H1003.28L1007.61 326H1004.93L1004.01 320.9H999.883L998.908 326H996.258ZM1000.26 318.875H1003.63L1001.93 309.75L1000.26 318.875ZM1016.36 326V307.85H1012.94V305.75H1022.51V307.85H1019.19V326H1016.36ZM1029.96 326V305.75H1037.81V307.85H1032.79V314.55H1036.86V316.55H1032.79V323.975H1037.86V326H1029.96ZM1061.11 326.225C1060.19 326.225 1059.4 326.033 1058.73 325.65C1058.08 325.25 1057.58 324.708 1057.23 324.025C1056.9 323.342 1056.73 322.558 1056.73 321.675C1056.73 320.392 1057.02 319.283 1057.58 318.35C1058.17 317.4 1058.87 316.558 1059.68 315.825C1059.38 315.225 1059.06 314.625 1058.71 314.025C1058.37 313.408 1058.08 312.775 1057.83 312.125C1057.6 311.458 1057.48 310.767 1057.48 310.05C1057.48 309.15 1057.66 308.367 1058.01 307.7C1058.36 307.033 1058.86 306.517 1059.51 306.15C1060.16 305.767 1060.92 305.575 1061.81 305.575C1062.62 305.575 1063.35 305.725 1063.98 306.025C1064.63 306.325 1065.15 306.758 1065.53 307.325C1065.92 307.875 1066.11 308.542 1066.11 309.325C1066.11 310.208 1065.9 311.058 1065.48 311.875C1065.08 312.675 1064.59 313.425 1064.01 314.125C1063.42 314.808 1062.86 315.417 1062.31 315.95L1065.36 320.75C1065.54 320.4 1065.69 320.008 1065.81 319.575C1065.94 319.125 1066.05 318.65 1066.13 318.15C1066.23 317.65 1066.31 317.167 1066.36 316.7H1069.01C1069.01 317.35 1068.91 318.033 1068.71 318.75C1068.52 319.467 1068.28 320.15 1067.98 320.8C1067.68 321.433 1067.37 321.975 1067.06 322.425C1067.27 322.692 1067.56 322.933 1067.91 323.15C1068.26 323.35 1068.63 323.45 1069.03 323.45V326.2C1068.97 326.2 1068.9 326.2 1068.83 326.2C1068.78 326.2 1068.73 326.2 1068.68 326.2C1068.2 326.183 1067.77 326.075 1067.38 325.875C1067 325.658 1066.65 325.4 1066.33 325.1C1066.03 324.8 1065.74 324.517 1065.46 324.25C1065.01 324.817 1064.42 325.292 1063.68 325.675C1062.97 326.042 1062.11 326.225 1061.11 326.225ZM1061.11 324C1061.74 324 1062.27 323.85 1062.71 323.55C1063.14 323.233 1063.52 322.883 1063.83 322.5L1060.73 317.725C1060.33 318.242 1060.01 318.85 1059.76 319.55C1059.52 320.233 1059.41 320.942 1059.41 321.675C1059.41 322.058 1059.46 322.433 1059.56 322.8C1059.66 323.15 1059.83 323.442 1060.08 323.675C1060.33 323.892 1060.67 324 1061.11 324ZM1061.38 314.5C1061.73 314.083 1062.06 313.592 1062.36 313.025C1062.67 312.458 1062.93 311.858 1063.13 311.225C1063.33 310.575 1063.43 309.942 1063.43 309.325C1063.43 308.842 1063.28 308.467 1062.98 308.2C1062.68 307.917 1062.29 307.775 1061.81 307.775C1061.21 307.775 1060.78 308.008 1060.53 308.475C1060.28 308.942 1060.16 309.467 1060.16 310.05C1060.16 310.817 1060.28 311.583 1060.53 312.35C1060.8 313.1 1061.08 313.817 1061.38 314.5ZM1087.63 326L1091.93 305.75H1094.66L1098.98 326H1096.31L1095.38 320.9H1091.26L1090.28 326H1087.63ZM1091.63 318.875H1095.01L1093.31 309.75L1091.63 318.875ZM1106.54 326V305.75H1110.61C1111.96 305.75 1113.08 305.933 1113.96 306.3C1114.85 306.65 1115.5 307.225 1115.91 308.025C1116.35 308.808 1116.56 309.842 1116.56 311.125C1116.56 311.908 1116.48 312.625 1116.31 313.275C1116.15 313.908 1115.88 314.45 1115.51 314.9C1115.15 315.333 1114.66 315.65 1114.06 315.85L1116.94 326H1114.21L1111.56 316.5H1109.36V326H1106.54ZM1109.36 314.475H1110.44C1111.24 314.475 1111.89 314.375 1112.39 314.175C1112.89 313.975 1113.25 313.633 1113.49 313.15C1113.72 312.667 1113.84 311.992 1113.84 311.125C1113.84 309.942 1113.62 309.092 1113.19 308.575C1112.75 308.042 1111.9 307.775 1110.61 307.775H1109.36V314.475ZM1126.88 326V307.85H1123.46V305.75H1133.03V307.85H1129.71V326H1126.88Z" fill="black"/>
<path d="M882.999 183.457C896.021 220.728 910.806 257.111 923 296.164C895.306 296.164 888 296.164 865 296.164C849.548 251.615 828.863 190.417 811.271 139.282C798.649 175.982 787.952 206.954 777.368 237.969C775.351 243.88 761.014 290.252 759 296.164C728 296.164 751.027 296.037 698.5 296.164C734.375 198.544 770.434 98.724 806.021 1.88819C808.449 1.75224 810.878 1.61635 813.307 1.48047C840.531 59.7653 858.628 122.132 882.999 183.457Z" fill="black"/>
<path d="M398.079 226.49C406.162 199.011 400.388 186.812 376.212 179.275C365.389 175.902 354.066 174.333 343.068 171.52C308.9 162.78 288.643 139.702 283.002 103.828C277.172 66.7552 294.147 32.0405 325.258 13.3922C378.3 -18.4026 445.249 9.0552 455.295 67.9103C457.819 82.6984 457.223 80.5062 457.223 89.9823C441.177 89.9823 425.21 89.9823 403.147 89.9823C401.141 66.8896 375.698 55.503 361.251 60.7637C348.023 65.58 339.806 74.4874 339.58 89.9823C339.33 107.184 349.669 115.249 363.565 119.065C375.121 122.238 387.364 122.731 398.855 126.091C438.974 137.821 462.149 172.452 459.662 215.701C457.28 257.11 429.668 288.329 389.47 295.631C383.696 296.679 371.863 297.37 368.674 295.631C368.674 288.34 368.674 288.34 368.674 279.252C368.674 265.248 368.674 250.552 368.674 242.155C381.084 240.056 389.47 237.956 398.079 226.49Z" fill="black"/>
<path d="M623.774 4.04547C655.865 4.04543 653.533 3.6059 691.968 4.04547C659.55 46.475 601.492 117.587 579.649 151.882C612.618 203.644 656.306 246.417 691.968 295.977C672.294 295.977 642.103 296.523 621.769 295.977C616.424 289.192 614.975 287.822 611.519 283.546C611.084 283.007 610.617 282.423 610.107 281.776C587.671 253.332 565.441 224.71 541.811 194.452C524.5 214.501 490.5 252.001 463.442 281.776C463.442 253.665 463.663 219.06 463.442 188.665C462.469 127.065 463.04 65.6168 463.036 4.04547C479.364 4.04546 507.224 4.04536 520.354 4.04547C520.354 45.0832 520.354 86.8019 520.354 128.789C553.481 87.1531 591.701 46.4373 623.774 4.04547Z" fill="black"/>
<path d="M22.6755 234.637C-9.04575 169.177 -9.42488 106.601 33.9208 48.3656C66.5817 4.4853 130.325 -10.9392 185.763 8.86259C233.752 26.0034 269.208 77.4314 271.876 131.707C274.599 187.086 262.629 235.512 218.375 271.154C169.634 310.41 67.6063 311.266 22.6755 234.637ZM100.534 232.335C154.925 256.198 202.04 229.997 215.495 168.405C223.891 129.969 203.898 82.3722 172.445 65.9183C141.626 49.7963 101.207 56.9421 80.4555 82.7858C45.958 125.748 51.5956 204.91 100.534 232.335Z" fill="black"/>
</svg>
